<svg xmlns="http://www.w3.org/2000/svg" viewBox="0 0 284.21 337.82">
    <defs>
        <style>.cls-1{fill:aqua;}.cls-2{fill:#ffd58c;}</style>
    </defs>
    <title>Michaela Somolova</title>
    <g id="Layer_2" data-name="Layer 2">
        <g id="Layer_1-2" data-name="Layer 1">
            <path class="cls-1"
                  d="M109.77,337.78c-25.3.09-46.07-9.47-62.07-29.2-8.27-10.19-11.2-21.9-9.75-34.73,2-18,9.27-33.8,21.16-47.48,4.56-5.25,4.44-5.22-.66-10.29C43.8,201.55,29.71,186.49,18,169.41c-6.37-9.31-11.67-19.21-14.88-30.1-6.17-21-3-40.79,7.53-59.61C24.12,55.59,43.36,37,66.32,22A135.55,135.55,0,0,1,118.89,1.34c10.34-1.7,20.77-2.14,30.86.83,24,7.06,39.52,22.92,47.06,46.71a34.23,34.23,0,0,1,1.58,11.81,4.49,4.49,0,0,1-2.51,4.24c-2.61,1.35-4.35.74-5.17-2.08-.88-3-1.4-6.09-2.38-9C181.2,32.5,167.61,17.3,146.08,9.94,135.4,6.29,124.46,7,113.5,9,93,12.83,75.24,22.41,59,35.16a157.44,157.44,0,0,0-34.43,37.3A85.09,85.09,0,0,0,11.5,103.68c-2.41,12.73-1,25.08,3.46,37.18C20,154.8,28.41,166.72,37.63,178.13c13.3,16.48,28.46,31.18,43.74,45.76,12.84,12.25,25.76,24.43,37.75,37.53,8.44,9.22,16.35,18.9,22.78,29.68a54.37,54.37,0,0,1,6.35,15.53c2.13,9.07-.34,16.54-7.86,22.17a44.43,44.43,0,0,1-24.62,9C113.77,337.87,111.77,337.78,109.77,337.78ZM48,276.15c.23,3.32.11,6,.62,8.54A48.43,48.43,0,0,0,51,293c3.49,8.88,9.69,15.61,17,21.48,12.16,9.77,26.22,14.76,41.57,16.27a40.7,40.7,0,0,0,20.18-3c6.38-2.73,9-7.36,8.58-14.27a33.36,33.36,0,0,0-3.58-12.13c-3.86-8.18-9.09-15.49-14.77-22.49-14.84-18.29-31.95-34.37-49-50.5-.36-.35-.75-.66-1.14-1-1.42-1.19-2.71-1-3.87.4-.48.57-1,1.14-1.43,1.73C53.82,243.49,49.05,259.51,48,276.15Z" />
            <path class="cls-1"
                  d="M168.77,227.83a110.08,110.08,0,0,1,3.06-25.74,27.32,27.32,0,0,1,3.11-8c3.06-4.95,7.59-4.87,10.44.26a25.86,25.86,0,0,1,2.93,13.76c-.43,11.38-4.59,21.15-13.52,28.51a4.61,4.61,0,0,0-1.78,5.19c.12.49.26,1,.38,1.45.51,1.93.76,4.26,3.07,4.71,2,.4,3.27-1.43,4.61-2.74,1.6-1.58,2.12-3.58,2.66-5.66.88-3.42,2.56-4.84,5.6-5.12a4.38,4.38,0,0,1,3.18.85c2.42,1.86,2.57,7,.39,10A5.23,5.23,0,0,1,185,246c-1-1-1.6-1-2.29.18a2.1,2.1,0,0,1-.22.3c-1.86,2.37-4,4.27-7.31,3.48s-4.34-3.52-5.2-6.33C168.51,238.81,168.82,233.79,168.77,227.83Zm4,7c8.83-7,14.09-21.17,12.16-33.3a18.48,18.48,0,0,0-2.38-7.44c-1.37-2.1-2.55-2.16-4-.11a19.36,19.36,0,0,0-2.74,7.31,152.24,152.24,0,0,0-3,25.62C172.72,229.38,172.81,231.85,172.81,234.83Zm18.43,5.72a7.66,7.66,0,0,0-.49-3.27c-.55-1.3-1.27-1.41-2.07-.21a13.79,13.79,0,0,0-2.11,7,1.65,1.65,0,0,0,1.08,1.76,1.76,1.76,0,0,0,1.67-.62A6.46,6.46,0,0,0,191.24,240.55Z" />
            <path class="cls-2" d="M110.45,164.29s0,.08,0,.12-.11.15-.15.22c0-.09,0-.2.07-.31Z" />
            <path class="cls-1"
                  d="M145.65,238.2c0-.39,0-.79,0-1.2,0-1.46,0-2.93,0-4.39a1.27,1.27,0,0,0-.5-.9c-.56-.35-1,.13-1.23.51-1.58,2.44-2.29,5.24-3.25,7.93-.42,1.17-.74,2.39-1.22,3.53a1.76,1.76,0,0,1-2.13,1.1,1.69,1.69,0,0,1-1.3-1.63c-.11-.86-.05-1.75-.17-2.6-.1-.65.42-1.72-.59-1.84-.81-.09-1,1-1.32,1.61-.8,1.68-1.49,3.42-2.26,5.12-.48,1.06-1.11,2.07-2.48,1.84s-1.54-1.45-1.57-2.6c0-2.12,0-4.24-.07-6.36,0-1,.07-2.12,1.33-2.33,1-.17,1.62.46,1.86,1.43.43,1.69,1,.91,1.61.1s.91-1.5,1.46-2.17c1.57-1.93,2.36-2.11,4.65-.66.94.6,1.27.37,1.66-.39a18.69,18.69,0,0,1,3.57-5.22c1.21-1.15,2.6-2.14,4.35-1.41s2,2.51,1.86,4.14c-.26,3.22-.78,6.43-1,9.66-.11,1.28-.7,3,.92,3.67,1.27.54,2.25-.73,3.27-1.4a6.39,6.39,0,0,0,2.89-4.18,8.45,8.45,0,0,1,.94-2.43,6.15,6.15,0,0,1,6.16-2.6c2.32.53,3.1,2.33,3.53,4.37a8.23,8.23,0,0,1-.9,5.44c-1.79,3.59-6,4.41-8.61,1.38-1.47-1.74-2.19-1.27-3.44-.11a10.17,10.17,0,0,1-2.75,1.9c-2.82,1.25-4.84.07-5.5-3a11.06,11.06,0,0,1-.07-3.54C145.44,240.05,145.58,239.14,145.65,238.2Zm17.82,2.62a8.16,8.16,0,0,0-.58-3.82c-.43-.94-1.13-1-1.68-.28a12,12,0,0,0-2.33,7.64c.06,1.57,1.38,2,2.64.91A6.19,6.19,0,0,0,163.47,240.82Z" />
            <path class="cls-2"
                  d="M249.45,179.15a2.24,2.24,0,0,1-1.06-2.43c.21-1.1.59-2.2.87-3.29s.64-2.35,1-3.51c.73-2.33,1.58-4.61,2.49-6.87q.87-2.18,1.79-4.32c.67-1.57,1.1-3.29,2.36-4.68a17,17,0,0,1,.28,3.56,26.85,26.85,0,0,1-.41,4,36.89,36.89,0,0,1-1,4.3,47,47,0,0,1-1.58,4.45q-.93,2.26-2.06,4.44c-.75,1.46-1.58,2.88-2.45,4.28l-.09.13a.32.32,0,0,0,.22-.12,15.35,15.35,0,0,1,1.77-1.55,18.22,18.22,0,0,0,1.81-1.59,22,22,0,0,0,2.8-3.36,24.17,24.17,0,0,0,2.09-3.84,25.79,25.79,0,0,0,1-2.66c1.77-5.68,1.94-11.54,1.59-17.43,0-.64-.44-1.25-1.24-1-2.1.61-4.31.79-5.56,3.22a175.64,175.64,0,0,0-9.89,22.22,15.59,15.59,0,0,0-1.08,6.24c.18,2.67,1.19,4.05,3.76,4.29A21.55,21.55,0,0,0,258,181.33c-.1,0-.53-.11-.66-.13s-.53-.09-.81-.12l-1.55-.14a11,11,0,0,1-3-.73A13.74,13.74,0,0,1,249.45,179.15Z" />
            <path class="cls-1"
                  d="M246.4,237.63a.27.27,0,0,1,.06.2,1.66,1.66,0,0,1-.24.75,6.33,6.33,0,0,1-1,1.34,12.89,12.89,0,0,1-1.87,1.59,27.86,27.86,0,0,1-13,5.35c-1.91.26-4.12.28-5.28-1.16-1.84-2.27-2.65-1-3.85.41a8.5,8.5,0,0,1-3.71,2.46c-4.15,1.36-6.93-1-6.36-5.37.12-.93,1.34-2.33-.62-2.64-1.37-.21-3-.59-3.57,1.57a24.86,24.86,0,0,1-1.8,4.5,3.8,3.8,0,0,1-7-.39c-1.47-3.51-1.78-7.25-2-11a1.51,1.51,0,0,1,1.08-1.76c1-.17,1.2.67,1.32,1.43.2,1.36.33,2.72.55,4.08.28,1.72.56,3.44.94,5.14.16.7.38,1.64,1.17,1.75,1.09.17,1.37-.88,1.62-1.68.53-1.66.94-3.36,1.45-5a31.06,31.06,0,0,1,1.26-3.5,2,2,0,0,1,2.36-1.37c1.14.3.9,1.28,1,2.14.21,2.73,1.87,3.57,4.18,2.09.73-.46,1.3-1.16,2-1.66,2-1.41,5-2.68,7.07-1,.76.59,1.39-.39,2.11-.62,1.92-.64,2.79.24,2.81,1.79,0,.74-.19,1.48-.23,2.23-.21,3.57.87,4.78,4.54,4.67a21.16,21.16,0,0,0,9-2.41c.76-.39,1.5-.82,2.22-1.28a12.19,12.19,0,0,0,2.21-1.62,5,5,0,0,1,.67-.64,2.54,2.54,0,0,1,.49-.26C246.07,237.63,246.3,237.54,246.4,237.63Zm-31.25,6.26c.07.7,0,1.66,1,2.07.78.35,1.43-.18,2-.67a14.75,14.75,0,0,0,3.49-4.79c.43-.87,1.13-1.84.09-2.68a2.63,2.63,0,0,0-2.84-.17C216.35,238.86,215.52,241.15,215.15,243.89Z" />
            <path class="cls-2"
                  d="M282.15,180.2c-2.92-.26-3.49-1-2.71-3.73a18.52,18.52,0,0,1,1.11-2.78c1-2.13,2-4.27,3.08-6.38.77-1.51.3-2.31-1.26-2.64a12,12,0,0,0-5.92,0,26.52,26.52,0,0,0-14.05,10,8.62,8.62,0,0,0-1.61,4.5c-.23,3.06,1.34,4.56,4.28,3.91a15.53,15.53,0,0,0,2.57-.78,8.07,8.07,0,0,0,2.26-1.38,6,6,0,0,0,.67-.66,13,13,0,0,1,1.11-1.12c.21-.2.74-.84,1-.86s.32.29.4.42a1.12,1.12,0,0,1,.15.67,9.61,9.61,0,0,1-.25,1.21,1.84,1.84,0,0,0,0,.4c.08,1.77,1,2.6,2.64,2.33a20.8,20.8,0,0,0,8.58-3C283.11,180.27,282.63,180.25,282.15,180.2Zm-11.33-.84-.09,0a4,4,0,0,1-1.26.36,6,6,0,0,1-1.47,0,1.14,1.14,0,0,1-1.16-1.2,7.94,7.94,0,0,1,.1-2.23,19.19,19.19,0,0,1,1.21-4.13,7.68,7.68,0,0,1,2.88-3.88,5.83,5.83,0,0,1,4.56-.42c.59.17,1.25.51,1.36,1.12a1.93,1.93,0,0,1-.34,1.21c-1.19,2.15-2.44,4.26-3.68,6.38-.25.43-.51.86-.79,1.27a7.09,7.09,0,0,1-.59.74A4.39,4.39,0,0,1,270.82,179.36Z" />
            <path class="cls-2"
                  d="M217.48,180.2c-3.51-.23-4-.82-2.71-4.13,1.07-2.78,2.46-5.44,3.68-8.18,1.11-2.46.83-3-1.85-3.39a9.39,9.39,0,0,0-3-.06c-8,1.53-14,5.7-17.46,13.17-.84,1.78-2.37,2.47-4.47,1.78s-1.6-2.19-1.07-3.64c1-2.7,2.12-5.36,3-8.08,1-3-.32-4.28-3.45-3.43a13.82,13.82,0,0,0-4.18,1.93c-1.37.91-2.48,2.16-3.86,3.07a3.4,3.4,0,0,1-1.09.51c-.55-1.06.5-2.89.84-3.93,1.77-5.44,3.61-10.87,5.41-16.3.28-.83.54-1.65.79-2.48.16-.53.16-1-.51-1.12-2-.47-5.47,1.6-6.1,3.71-3,9.88-5.95,19.78-8.83,29.69-.29,1-1.69,2.54.16,3.15A3.38,3.38,0,0,0,177,181c.47-.85.75-1.83,1.15-2.75.73-1.65,1.44-3.33,2.32-4.93a25.86,25.86,0,0,1,1.46-2.33c.95-1.3,2.69-3,4.53-2.38.76.25.63,1.13.46,1.75-.24.82-.56,1.64-.88,2.45a29.56,29.56,0,0,0-2.18,6.75c-.42,3.13.81,4.28,3.85,3.49,2.17-.56,4.28-1.34,6.41-2.05.72-.23,1.34-.57,1.87.4,1.45,2.64,3.67,2,5.9,1.28a10.85,10.85,0,0,0,3.25-1.82c.49-.38,1-.77,1.47-1.15.25-.19,1.18-1.1,1.5-1,.52.14.14,1.14.11,1.45-.25,2.65.56,3.65,3,3.2a22.27,22.27,0,0,0,8.29-2.93Zm-6.57-8.51c-1.41,2.63-2.81,5.31-5,7.37a2.59,2.59,0,0,1-2.69.91c-1.16-.43-1.19-1.48-1.17-3.09a15.27,15.27,0,0,1,2.64-7.11,4.49,4.49,0,0,1,3.44-2c1.38-.12,3-.25,3.82.94C212.51,169.61,211.42,170.73,210.91,171.69Z" />
            <path class="cls-2" d="M181,169.8l-.09,0,0-.08H181A.35.35,0,0,1,181,169.8Z" />
            <path class="cls-2"
                  d="M241.1,180.71c-4.77,1.83-9.29,3-14.06,2.6-4.38-.35-6.34-3.3-5.23-7.57,1.58-6.05,10.13-12,16.36-11.42,2.78.27,3.94,2.05,3,4.67a10.14,10.14,0,0,1-3.74,4.55,24.37,24.37,0,0,1-4,2.41c-.87.43-1.78.81-2.69,1.17-.48.19-1.8.54-1.47,1.31.22.52,1,.89,1.43,1.18a6.41,6.41,0,0,0,2.07.82,22.11,22.11,0,0,0,4.6.31C238.5,180.76,239.56,180.17,241.1,180.71Zm-13.58-6.4c0,2.23.52,3.24,1.51,3,2.44-.66,5.9-5.79,5.95-8.42,0-.87,0-1.72-.93-2.24a2.16,2.16,0,0,0-2.43.3A10,10,0,0,0,227.52,174.31Z" />
            <path class="cls-2"
                  d="M164.7,171.7c.53-1.72,1.48-3,1-4.62-.34-1.11-1-1.86-2.13-.87-3.06,2.65-5,5.92-5,10.06,0,2.36,1.38,3.68,4.12,3.91,2.21.19,4.45,0,6.72.35a24.1,24.1,0,0,1-13.11,2.53c-3.14-.37-4.23-2.06-4-5.18a9.38,9.38,0,0,1,1.39-4.23A21.41,21.41,0,0,1,166.07,164c2.82-.88,5.12-.28,5.73,1.21s-.6,3.53-3.06,5.08A6.55,6.55,0,0,1,164.7,171.7Z" />
            <path class="cls-2"
                  d="M151,180a23.08,23.08,0,0,1-7.57,3.09,4.57,4.57,0,0,1-2.59,0,23.22,23.22,0,0,1-2.08-1.31c-1.5-.73-3.3-.19-4.82.53s-3.06,1.59-4.73,1.5a5.53,5.53,0,0,1-4.46-3.54,13.28,13.28,0,0,1-.74-5.88c.39-8.67,3-17,4.94-25.49a1.26,1.26,0,0,0,0-.79c-.34-.74-1.45-.24-2,.33A116.77,116.77,0,0,0,106.3,176.7c-1.3,2.49-2.76,5.27-5.42,6.18a2.07,2.07,0,0,1-1.88-.11c-.89-.64-.58-2-.18-3.07q6.27-16.15,12.56-32.34a5.81,5.81,0,0,0,.53-2.14,2,2,0,0,0-1.06-1.81c-1.24-.53-2.44.77-3.13,1.91-2.1,3.5-3.91,7.17-5.66,10.85s-3.45,7.4-5.34,11a68.21,68.21,0,0,1-6.39,10.24c-.61.8-1.25,1.57-1.92,2.32l-1,1.22,0,0-.21.2a35.5,35.5,0,0,1-5.49,4.43s0,0,0,0a28.64,28.64,0,0,1-3.84,2.16,26.18,26.18,0,0,1-8.59,2.25,32.14,32.14,0,0,1-4.39.08,6.76,6.76,0,0,1-4.08-1c-1-.83-.31-2.06.88-3.12a8.86,8.86,0,0,1,3.54-2,.41.41,0,0,1,.27,0,.3.3,0,0,1,.16.12,5.24,5.24,0,0,0,3.15,1.3,26.05,26.05,0,0,0,9.4-.17,14.34,14.34,0,0,0,3.44-1.25h0a11.42,11.42,0,0,0,3-2.14,20.83,20.83,0,0,0,3.63-4.66c.14-.22.28-.47.42-.72a124.13,124.13,0,0,0,5.51-12.1c.81-1.94,1.63-3.89,2.51-5.81,3.53-7.69,8.52-15.31,16.24-18.74a7,7,0,0,1,3.15-.75,3,3,0,0,1,2.62,1.65,4.57,4.57,0,0,1-.25,3.18,218,218,0,0,1-8.27,21c6.9-8.35,14-16.88,23.37-22.34.72-.42,1.75-.75,2.26-.1a1.79,1.79,0,0,1,.13,1.43c-2.07,10.26-6.71,20.42-5.14,30.76a9,9,0,0,0,1.2,3.66,4,4,0,0,0,3.16,2c1.87,0,3.34-1.62,4.19-3.29,1.21-2.4,1.68-5.11,2.82-7.57s3.25-4.74,5.94-4.84c.49,0,1.08.1,1.22.57a1.3,1.3,0,0,1-.14.81l-3.94,9.69c-.47,1.15-.86,2.71.13,3.51a2.78,2.78,0,0,0,1.17.45A17.49,17.49,0,0,0,151,180Z" />
            <path class="cls-1"
                  d="M126,240.21a11.66,11.66,0,0,1-.56,3.23,5.35,5.35,0,0,1-10.51-1.89c.12-2.27.71-4.5,2.69-5.89a5.58,5.58,0,0,1,5.64-.83C125.36,235.76,126,238,126,240.21Zm-3.31-.19a22.35,22.35,0,0,0-.29-2.44c-.11-.62-.33-1.24-1.06-1.28-.52,0-.88.41-1.13.84a14.41,14.41,0,0,0-2.07,6.62,1.86,1.86,0,0,0,.8,1.94c1.16.63,2.46-.81,3-1.72A6.85,6.85,0,0,0,122.68,240Z" />
            <path class="cls-2" d="M149.73,152.59a3.1,3.1,0,0,1,2.77,3.34A3.5,3.5,0,0,1,149,159a2.87,2.87,0,0,1-2.72-3.29A3.51,3.51,0,0,1,149.73,152.59Z" />
            <path class="cls-1" d="M224.73,228.52a2.86,2.86,0,0,1-.61,1c-.34.5-.69,1-1.07,1.47s-.62.76-1,1.12a4.88,4.88,0,0,1-1.06,1c-.44.38-.94.07-1-.56-.18-1.21,1.63-4.6,2.76-5a1.77,1.77,0,0,1,1.49.1,1,1,0,0,1,.46.59A.53.53,0,0,1,224.73,228.52Z" />
            <path class="cls-2" d="M110.32,164.32l-.15.64a1,1,0,0,1,0-.25c0-.11.14-.2.2-.31Z" />
            <path class="cls-2" d="M180.92,169.74l-.11.31c-.25-.11-.2-.2.17-.25Z" />
        </g>
    </g>
</svg>
